<?xml version="1.0" standalone="no"?>
<!DOCTYPE svg PUBLIC "-//W3C//DTD SVG 20010904//EN"
 "http://www.w3.org/TR/2001/REC-SVG-20010904/DTD/svg10.dtd">
<svg version="1.0" xmlns="http://www.w3.org/2000/svg"
 width="393.000000pt" height="393.000000pt" viewBox="0 0 393.000000 393.000000"
 preserveAspectRatio="xMidYMid meet">
<metadata>
Created by potrace 1.14, written by Peter Selinger 2001-2017
</metadata>
<g transform="translate(0.000000,393.000000) scale(0.100000,-0.100000)"
fill="#000000" stroke="none">
<path d="M3402 2823 l3 -438 88 0 c71 -1 87 2 88 15 0 8 1 205 2 437 l2 423
-93 0 -92 0 2 -437z"/>
<path d="M3105 2920 l-50 -5 0 -95 0 -95 133 -1 c73 0 135 3 137 7 5 7 8 97 6
159 l-1 35 -87 0 c-49 0 -111 -2 -138 -5z"/>
<path d="M3774 2922 l-122 -3 -1 -93 c-1 -68 2 -95 11 -98 7 -3 69 -4 138 -4
l125 1 3 96 c2 86 1 97 -15 100 -10 2 -73 3 -139 1z"/>
<path d="M738 2385 c-2 -2 -26 -5 -54 -9 -243 -29 -482 -201 -598 -432 -58
-117 -80 -211 -81 -349 0 -184 37 -315 129 -454 203 -304 584 -432 931 -313
169 58 193 79 760 645 286 286 538 532 560 547 201 138 484 115 659 -56 212
-206 217 -540 12 -747 -165 -167 -401 -206 -614 -101 -61 30 -98 61 -224 185
-84 82 -154 149 -158 149 -3 0 -47 -42 -99 -94 l-93 -93 151 -150 c195 -194
281 -253 436 -298 96 -28 104 -29 230 -28 166 0 301 39 430 122 335 217 461
658 290 1016 -97 204 -266 352 -482 423 -127 42 -305 47 -438 13 -91 -24 -209
-79 -275 -128 -25 -19 -281 -270 -570 -558 -493 -491 -529 -525 -598 -558 -39
-20 -87 -39 -105 -43 -17 -4 -39 -9 -47 -11 -8 -2 -51 -4 -95 -4 -196 0 -383
119 -467 297 -136 290 4 623 308 729 64 22 206 30 275 16 119 -26 192 -74 359
-238 l154 -153 81 83 c44 46 86 91 94 100 12 16 -1 32 -140 168 -200 197 -299
260 -476 304 -51 12 -236 27 -245 20z"/>
</g>
</svg>
